<?xml version="1.0" encoding="utf-8"?>
<!-- Generator: Adobe Illustrator 21.0.0, SVG Export Plug-In . SVG Version: 6.00 Build 0)  -->
<svg version="1.1" id="Layer_1" xmlns="http://www.w3.org/2000/svg" xmlns:xlink="http://www.w3.org/1999/xlink" x="0px" y="0px"
	 viewBox="0 0 121.3 37.3" style="enable-background:new 0 0 121.3 37.3;" xml:space="preserve">
<style type="text/css">
	.st0{display:none;fill:#053B7B;}
	.st1{display:none;fill:#191919;}
	.st2{fill:#191919;}
	.st3{display:none;fill:#87C7D6;}
	.st4{display:none;}
	.st5{display:none;fill:#FFFFFF;}
	.st6{display:none;fill:#F2F2F2;}
	.st7{font-family:'Calligraphr-Regular';}
	.st8{font-size:200px;}
</style>
<path class="st0" d="M16-286.7c-138.6,0-251,112.4-251,251s112.4,251,251,251S267,103,267-35.7S154.6-286.7,16-286.7z M17.5,186.3
	C-104.3,186.3-203,87.6-203-34.2s98.7-220.5,220.5-220.5S238-155.9,238-34.2S139.3,186.3,17.5,186.3z"/>
<path class="st0" d="M90-28.7c0-28-22-71-74-71c-41,0-75,32-75,71c4.5,0,18.9,0,37,0v57h75v-57C71.7-28.7,86.2-28.7,90-28.7z"/>
<path class="st0" d="M-27.1-33.5l36.2,40c5,5.5,13.5,6,19.1,1l28.9-26.2c5.5-5,6-13.5,1-19.1l-36.2-40c-5-5.5-13.5-6-19.1-1
	l-28.9,26.2C-31.7-47.6-32.1-39.1-27.1-33.5z"/>
<path class="st0" d="M58.1-33.3l-36.2,40c-5,5.5-13.5,6-19.1,1l-28.9-26.2c-5.5-5-6-13.5-1-19.1l36.2-40c5-5.5,13.5-6,19.1-1
	l28.9,26.2C62.7-47.4,63.1-38.8,58.1-33.3z"/>
<circle class="st1" cx="16.5" cy="-34.5" r="55.2"/>
<path class="st1" d="M123.8-11.7L7.7,73.2c-2.7,1.9-6.4,1.4-8.3-1.3l-3.7-5.1c-1.9-2.7-1.4-6.4,1.3-8.3l116-84.9
	c2.7-1.9,6.4-1.4,8.3,1.3l3.7,5.1C127-17.3,126.4-13.6,123.8-11.7z"/>
<path class="st2" d="M11.9,33.5h97.7c3.2,0,5.9-2.6,5.9-5.9V11.9c0-3.2-2.6-5.9-5.9-5.9H11.9C8.6,6,6,8.6,6,11.9v15.7
	C6,30.8,8.6,33.5,11.9,33.5z"/>
<path class="st3" d="M98.5,78.2H21.3c-4.2,0-7.6-3.4-7.6-7.6V-23c0-4.2,3.4-7.6,7.6-7.6h77.1c4.2,0,7.6,3.4,7.6,7.6v93.6
	C106.1,74.8,102.7,78.2,98.5,78.2z"/>
<rect x="13.7" y="45.2" class="st4" width="92.4" height="9.9"/>
<path class="st3" d="M96.5,15.1v14.7c0,2.8-2.2,5-5,5H17.4c-2.8,0-5-2.2-5-5V15.1c0-2.8,2.2-5,5-5h74.1
	C94.3,10.1,96.5,12.4,96.5,15.1z"/>
<path class="st4" d="M100.9,37.3c-7.9,0-14.2-6.4-14.2-14.2S93,8.8,100.9,8.8S108.7,37.3,100.9,37.3z"/>
<path class="st3" d="M68,58.5H51.6c-2.8,0-5-2.2-5-5v-74.1c0-2.8,2.2-5,5-5H68c2.8,0,5,2.2,5,5v74.1C73,56.2,70.8,58.5,68,58.5z"/>
<path class="st4" d="M46.6,64.2c0-7.7,6.3-14,14-14s14,6.3,14,14S46.6,72,46.6,64.2z"/>
<circle class="st5" cx="60.2" cy="23.4" r="221.9"/>
<path class="st6" d="M59.6-199c122.5,0,221.9,99.3,221.9,221.9S182.1,244.7,59.6,244.7V-199z"/>
<text transform="matrix(1 0 0 1 -114.3333 99.667)" class="st0 st7 st8">IFIT</text>
</svg>
