<svg id="Layer_6" data-name="Layer 6" xmlns="http://www.w3.org/2000/svg" viewBox="0 0 314.32 314.32"><defs><style>.cls-1{fill:#fff;opacity:0.49;}.cls-2{fill:#053b7b;}.cls-3{fill:none;stroke:#f9f9f9;stroke-miterlimit:10;stroke-width:6px;opacity:0.75;}</style></defs><title>Ladies_Who_Life</title><circle class="cls-1" cx="157.16" cy="157.16" r="154.16"/><path class="cls-2" d="M147.25,105.45l-21.72,18a10.44,10.44,0,0,0-1.39,14.69l2.66,3.22L94.42,168.09l-2.66-3.22a10.44,10.44,0,0,0-14.69-1.39l-21.72,18A10.44,10.44,0,0,0,54,196.13l18,21.72a10.44,10.44,0,0,0,14.69,1.39l21.72-18a10.44,10.44,0,0,0,1.39-14.69l-2.66-3.22,32.38-26.77,2.66,3.22a10.44,10.44,0,0,0,14.69,1.39l21.72-18a10.44,10.44,0,0,0,1.39-14.69l-18-21.72A10.44,10.44,0,0,0,147.25,105.45Z" transform="translate(-6.03 -7.78)"/><path class="cls-2" d="M243.12,172.26H214.94a10.44,10.44,0,0,0-10.44,10.44v4.17h-42V182.7a10.44,10.44,0,0,0-10.44-10.44H123.88a10.44,10.44,0,0,0-10.44,10.44v28.18a10.44,10.44,0,0,0,10.44,10.44h28.18a10.44,10.44,0,0,0,10.44-10.44V206.7h42v4.17a10.44,10.44,0,0,0,10.44,10.44h28.18a10.44,10.44,0,0,0,10.44-10.44V182.7A10.44,10.44,0,0,0,243.12,172.26Z" transform="translate(-6.03 -7.78)"/><circle class="cls-3" cx="157.16" cy="157.16" r="154.16"/></svg>