<svg id="Layer_1" data-name="Layer 1" xmlns="http://www.w3.org/2000/svg" viewBox="0 0 502 614.99"><defs><style>.cls-1{fill:#fff;}.cls-2{fill:#f2f2f2;}.cls-3,.cls-4{fill:#053b7b;}.cls-4{font-size:200px;font-family:Calligraphr-Regular, Calligraphr;}</style></defs><title>LogoParts</title><circle class="cls-1" cx="251.59" cy="361.99" r="233.99"/><path class="cls-2" d="M260.4,136.82c129.23,0,234,104.76,234,234s-104.76,234-234,234Z" transform="translate(-9.4 -9.4)"/><path class="cls-3" d="M260.4,122.39c-138.62,0-251,112.38-251,251s112.38,251,251,251,251-112.38,251-251S399,122.39,260.4,122.39Zm1.5,473c-121.78,0-220.5-98.72-220.5-220.5s98.72-220.5,220.5-220.5,220.5,98.72,220.5,220.5S383.68,595.39,261.9,595.39Z" transform="translate(-9.4 -9.4)"/><path class="cls-3" d="M335.49,80.4c0-28-22-71-74-71-41,0-75,32-75,71h37v57h75v-57Z" transform="translate(-9.4 -9.4)"/><rect class="cls-3" x="424.82" y="164.39" width="81" height="66" rx="13.5" ry="13.5" transform="translate(621.81 665.45) rotate(-132.15)"/><rect class="cls-3" x="23.19" y="155.79" width="81" height="66" rx="13.5" ry="13.5" transform="translate(-128.42 99.93) rotate(-47.85)"/><text class="cls-4" transform="translate(79.67 447.17)">IFIT</text></svg>