<svg id="Layer_1" data-name="Layer 1" xmlns="http://www.w3.org/2000/svg" viewBox="0 0 314.32 314.86"><defs><style>.cls-1,.cls-5{fill:#fff;}.cls-1{opacity:0.49;}.cls-2,.cls-6{fill:none;}.cls-3{fill:#053b7b;}.cls-4{opacity:0.4;}.cls-6{stroke:#f9f9f9;stroke-miterlimit:10;stroke-width:6px;opacity:0.75;}</style></defs><title>Tai_Chi</title><circle class="cls-1" cx="155.39" cy="160.7" r="154.16"/><path class="cls-2" d="M163.38,109.2c-19.56,0-35.42,11.95-35.42,26.67a22,22,0,0,0,5.4,14.15,55.14,55.14,0,0,1,60,0,22,22,0,0,0,5.4-14.15C198.8,121.15,182.93,109.2,163.38,109.2Z" transform="translate(-5.8 -5.91)"/><path class="cls-3" d="M204.92,160.05l-.6-.69a47.22,47.22,0,1,0-81.9,0,55.1,55.1,0,0,0,3.74,77.48c.31.35.64.67,1,1a23.31,23.31,0,0,0,16.38,6.72h39.73a23.29,23.29,0,0,0,17.4-7.79,55.05,55.05,0,0,0,4.28-76.73ZM163.38,109.2c19.55,0,35.42,11.95,35.42,26.67A22,22,0,0,1,193.4,150a55.14,55.14,0,0,0-60,0,22,22,0,0,1-5.4-14.15C128,121.15,143.82,109.2,163.38,109.2Z" transform="translate(-5.8 -5.91)"/><g class="cls-4"><path class="cls-5" d="M127.44,167.94c-6.18,6-10.24,14.8-9.54,23.42.33,4.06,6.7,4.09,6.37,0-.57-7.05,2.6-14,7.67-18.92,3-2.85-1.54-7.35-4.5-4.5Z" transform="translate(-5.8 -5.91)"/></g><circle class="cls-6" cx="157.16" cy="157.16" r="154.16"/></svg>