<svg id="Layer_3" data-name="Layer 3" xmlns="http://www.w3.org/2000/svg" viewBox="0 0 314.32 314.32"><defs><style>.cls-1{fill:#fff;opacity:0.49;}.cls-2{fill:#053b7b;}.cls-3{fill:none;stroke:#f9f9f9;stroke-miterlimit:10;stroke-width:6px;opacity:0.75;}</style></defs><title>weekend_recovery_yoga</title><circle class="cls-1" cx="156.27" cy="157.16" r="154.16"/><path class="cls-2" d="M164,171.21S111.16,194,111.15,197.46s2.77,60,2.77,60-2.76,17.71-1.38,20.68-6.26,10.44-6.26,10.44l9,0s5.57-13.45,7.42-13.91,4.64-4.64,4.64-4.64l-4.64-3.71s7.88-48.7,3.71-54.26,2.78-8.35,2.78-8.35,20.41-.93,31.54-5.57c3.25,2.78,18.55,7,24.12,1.39s7-1.86,7-1.86-1.39,15.31-5.57,25-2.32,13-1.39,17.62-1.86,6.49-1.86,6.49-8.35-9.74-22.26,1.39c-4.17-1.39-8.35.93-8.35.93v6l3.25,4.17h5.1s-1.86,14.84,13.91,14.84c8.81-1.39,11.6-4.17,11.6-4.17l5.57,3.25v4.17l-14.38.93s-6.49,2.32-11.6.46c-3.71-4.64-7-6-7.42-6s-6-4.64-6-4.64-1.39,1.39-.46,2.32,3.71,2.78,3.71,3.25-.46,1.39-.93,1.39-5.57,1.86-7,1.86h-7.42c-.46,0-.46.46-.46,1.39a.91.91,0,0,0,.93.93s-2.78.46-3.25.46,0,1.39.46,1.39h1.39l-.93.93V283l.93.93s4.64.93,4.64.46-1.39.93-.46,1.39,13,.46,13.91,0a20.41,20.41,0,0,1,4.64-.93c.46,0,15.77.46,18.09.93s14.84,2.32,16.7,1.86a3.2,3.2,0,0,0,2.32-1.86s2.32-37.1,1.39-41.28a16,16,0,0,0,8.35-7.88c3.71-2.78,6.49-6,9.28-7.42s0-5.1,0-8.35.46-9.74,0-11.6-11.6-27.83-32-39c-3.71-24.12-10.2-47.77-10.2-48.7s.46-8.35.46-9.28-2.32-3.71-2.78-5.57S170,60.83,171.43,58a16.88,16.88,0,0,0,1.39-7.42c0-1.39.46-10.2,0-10.67s0-13.45.46-14.84-2.78,0-2.78,0L166.33,33s-1.39,9.28-.46,11.6c0,2.78-6,5.1-6.49,6S158,52,158.44,52.94a20.94,20.94,0,0,0,3.25,3.25L164,59.43s1.39,11.6-.93,19.48-6.49,23.65-3.71,29.22,5.57,9.74,6,11.6S162.15,140.6,164,171.21Z" transform="translate(-5.36 -8.2)"/><circle class="cls-3" cx="157.16" cy="157.16" r="154.16"/></svg>