<svg id="Layer_4" data-name="Layer 4" xmlns="http://www.w3.org/2000/svg" viewBox="0 0 314.32 314.32"><defs><style>.cls-1{fill:#fff;opacity:0.49;}.cls-2{fill:#8c8c8c;}.cls-3{fill:#053b7b;}.cls-4{fill:none;stroke:#f9f9f9;stroke-miterlimit:10;stroke-width:6px;opacity:0.75;}</style></defs><title>CTC</title><circle class="cls-1" cx="157.16" cy="157.16" r="154.16"/><rect class="cls-2" x="155.81" y="133.88" width="14.98" height="66.96" transform="translate(-76.29 172.52) rotate(-48.91)"/><path class="cls-3" d="M159.68,120.56a13.63,13.63,0,0,0-20.54-17.91L95.79,152.36a13.63,13.63,0,0,0,20.54,17.91L133.14,151,143,139.71Z" transform="translate(-6.13 -7.93)"/><path class="cls-3" d="M229.38,163.25a13.63,13.63,0,0,0-19.23,1.31l-16.7,19.15L183.61,195l-16.81,19.28a13.63,13.63,0,0,0,20.54,17.91l43.35-49.71A13.63,13.63,0,0,0,229.38,163.25Z" transform="translate(-6.13 -7.93)"/><path class="cls-3" d="M131.41,90.77a10.78,10.78,0,0,0-15.2,1l-10.84,12.43-3.43-3a3.69,3.69,0,0,0-5.21.36l-6,6.87a3.69,3.69,0,0,0,.36,5.21l3.43,3-12.6,14.45a10.78,10.78,0,1,0,16.25,14.17L132.45,106A10.78,10.78,0,0,0,131.41,90.77Z" transform="translate(-6.13 -7.93)"/><path class="cls-3" d="M237.29,219.26l-3.43-3,10.84-12.43a10.78,10.78,0,0,0-16.25-14.17L194.17,229a10.78,10.78,0,0,0,16.25,14.17L223,228.7l3.43,3a3.69,3.69,0,0,0,5.21-.36l6-6.87A3.69,3.69,0,0,0,237.29,219.26Z" transform="translate(-6.13 -7.93)"/><circle class="cls-4" cx="157.16" cy="157.16" r="154.16"/></svg>