<svg id="Layer_5" data-name="Layer 5" xmlns="http://www.w3.org/2000/svg" viewBox="0 0 314.32 314.32"><defs><style>.cls-1{fill:#fff;opacity:0.49;}.cls-2{fill:#053b7b;}.cls-3,.cls-4,.cls-6{fill:none;stroke-miterlimit:10;}.cls-3,.cls-4{stroke:#000;stroke-width:5px;}.cls-3{opacity:0.45;}.cls-4{opacity:0.6;}.cls-5{fill:#a7a9ac;}.cls-6{stroke:#f9f9f9;stroke-width:6px;opacity:0.75;}</style></defs><title>Mu_Tai_Kickboxing</title><circle class="cls-1" cx="157.16" cy="157.16" r="154.16"/><path class="cls-2" d="M73.62,209.68s-39-48.66,9.52-74.31c21.9-5.31,36.18,1.77,37.13,5.31s9.52,11.5,6.66,13.27-5.71,8-8.57,8-6.66,3.54-10.47,0-15.23-1.77-14.28,2.65-1.9,19.46,0,15S102.18,169,106,168.1s15.23,4.42,15.23,8-11.43,29.19-13.33,31-1.9,23-1.9,23H73.62Z" transform="translate(-5.06 -7.31)"/><path class="cls-2" d="M252.58,207.91s39-48.66-9.52-74.31c-21.9-5.31-36.18,1.77-37.13,5.31s-9.52,11.5-6.66,13.27,5.71,8,8.57,8,6.66,3.54,10.47,0,15.23-1.77,14.28,2.65,1.9,19.46,0,15-8.57-10.62-12.38-11.5-15.23,4.42-15.23,8,11.43,29.19,13.33,31,1.9,23,1.9,23h32.37Z" transform="translate(-5.06 -7.31)"/><line class="cls-3" x1="158.93" y1="57.93" x2="129.69" y2="110.2"/><line class="cls-4" x1="157.33" y1="58.48" x2="182.58" y2="102.22"/><line class="cls-4" x1="156.34" y1="58.31" x2="161.52" y2="108.05"/><path class="cls-5" d="M133,112.18v124s4.24,13.19,8.47,14.51,31.07,9.24,43.78,0,8.47-131.95,7.06-138.54-26.83-15.83-39.54-9.24A201.52,201.52,0,0,1,133,112.18Z" transform="translate(-5.06 -7.31)"/><circle class="cls-6" cx="157.16" cy="157.16" r="154.16"/></svg>