<?xml version="1.0" encoding="utf-8"?>
<!-- Generator: Adobe Illustrator 21.0.0, SVG Export Plug-In . SVG Version: 6.00 Build 0)  -->
<svg version="1.1" id="Layer_1" xmlns="http://www.w3.org/2000/svg" xmlns:xlink="http://www.w3.org/1999/xlink" x="0px" y="0px"
	 viewBox="0 0 121.3 22" style="enable-background:new 0 0 121.3 22;" xml:space="preserve">
<style type="text/css">
	.st0{display:none;fill:#053B7B;}
	.st1{display:none;fill:#191919;}
	.st2{fill:#191919;}
	.st3{display:none;fill:#87C7D6;}
	.st4{display:none;}
	.st5{display:none;fill:#FFFFFF;}
	.st6{display:none;fill:#F2F2F2;}
	.st7{font-family:'Calligraphr-Regular';}
	.st8{font-size:200px;}
</style>
<path class="st0" d="M16-302c-138.6,0-251,112.4-251,251s112.4,251,251,251S267,87.6,267-51S154.6-302,16-302z M17.5,171
	C-104.3,171-203,72.3-203-49.5S-104.3-270,17.5-270S238-171.3,238-49.5S139.3,171,17.5,171z"/>
<path class="st0" d="M90-44c0-28-22-71-74-71c-41,0-75,32-75,71c4.5,0,18.9,0,37,0v57h75v-57C71.7-44,86.2-44,90-44z"/>
<path class="st0" d="M-27.1-48.9l36.2,40c5,5.5,13.5,6,19.1,1l28.9-26.2c5.5-5,6-13.5,1-19.1l-36.2-40c-5-5.5-13.5-6-19.1-1
	l-28.9,26.2C-31.7-62.9-32.1-54.4-27.1-48.9z"/>
<path class="st0" d="M58.1-48.6l-36.2,40c-5,5.5-13.5,6-19.1,1l-28.9-26.2c-5.5-5-6-13.5-1-19.1l36.2-40c5-5.5,13.5-6,19.1-1
	l28.9,26.2C62.7-62.7,63.1-54.2,58.1-48.6z"/>
<circle class="st1" cx="16.5" cy="-49.8" r="55.2"/>
<path class="st1" d="M123.8-27L7.7,57.9c-2.7,1.9-6.4,1.4-8.3-1.3l-3.7-5.1c-1.9-2.7-1.4-6.4,1.3-8.3l116-84.9
	c2.7-1.9,6.4-1.4,8.3,1.3l3.7,5.1C127-32.7,126.4-28.9,123.8-27z"/>
<path class="st2" d="M11.9,18.1h97.7c3.2,0,5.9-2.6,5.9-5.9V9.2c0-3.2-2.6-5.9-5.9-5.9H11.9C8.6,3.3,6,6,6,9.2v3.1
	C6,15.5,8.6,18.1,11.9,18.1z"/>
<path class="st3" d="M98.5,62.8H21.3c-4.2,0-7.6-3.4-7.6-7.6v-93.6c0-4.2,3.4-7.6,7.6-7.6h77.1c4.2,0,7.6,3.4,7.6,7.6v93.6
	C106.1,59.4,102.7,62.8,98.5,62.8z"/>
<rect x="13.7" y="29.9" class="st4" width="92.4" height="9.9"/>
<path class="st3" d="M96.5-0.2v14.7c0,2.8-2.2,5-5,5H17.4c-2.8,0-5-2.2-5-5V-0.2c0-2.8,2.2-5,5-5h74.1C94.3-5.2,96.5-3,96.5-0.2z"/>
<path class="st4" d="M100.9,22C93,22,86.6,15.6,86.6,7.8S93-6.5,100.9-6.5S108.7,22,100.9,22z"/>
<path class="st3" d="M68,43.1H51.6c-2.8,0-5-2.2-5-5V-36c0-2.8,2.2-5,5-5H68c2.8,0,5,2.2,5,5v74.1C73,40.9,70.8,43.1,68,43.1z"/>
<path class="st4" d="M46.6,48.9c0-7.7,6.3-14,14-14s14,6.3,14,14S46.6,56.6,46.6,48.9z"/>
<circle class="st5" cx="60.2" cy="8.1" r="221.9"/>
<path class="st6" d="M59.6-214.4c122.5,0,221.9,99.3,221.9,221.9S182.1,229.4,59.6,229.4V-214.4z"/>
<text transform="matrix(1 0 0 1 -114.3333 84.3336)" class="st0 st7 st8">IFIT</text>
</svg>
